<svg width="800" height="800" viewBox="0 0 800 800" fill="none" xmlns="http://www.w3.org/2000/svg">
<mask id="path-1-inside-1" fill="white">
<path d="M400 0L600 53.5898L746.41 200L800 400L746.41 600L600 746.41L400 800L200 746.41L53.5898 600L0 400L53.5898 200L200 53.5898L400 0Z"/>
</mask>
<path d="M400 0L405 -8.66025L400 -11.547L395 -8.66025L400 0ZM746.41 200H756.41V194.227L751.41 191.34L746.41 200ZM746.41 600L751.41 608.66L756.41 605.773V600H746.41ZM400 800L395 808.66L400 811.547L405 808.66L400 800ZM53.5898 600H43.5898V605.773L48.5898 608.66L53.5898 600ZM53.5898 200L48.5898 191.34L43.5898 194.227V200H53.5898ZM395 -8.66025L48.5898 191.34L58.5898 208.66L405 8.66025L395 -8.66025ZM395 8.66025L741.41 208.66L751.41 191.34L405 -8.66025L395 8.66025ZM736.41 200V400H756.41V200H736.41ZM736.41 400V600H756.41V400H736.41ZM63.5898 600V400H43.5898V600H63.5898ZM63.5898 400V200H43.5898V400H63.5898ZM48.5898 608.66L395 808.66L405 791.34L58.5898 591.34L48.5898 608.66ZM741.41 591.34L395 791.34L405 808.66L751.41 608.66L741.41 591.34ZM53.5898 210H284.53V190H53.5898V210ZM284.53 210H400V190H284.53V210ZM400 210H515.47V190H400V210ZM515.47 210H746.41V190H515.47V210ZM44.9296 205L160.4 405L177.72 395L62.2501 195L44.9296 205ZM160.4 405L275.87 605L293.19 595L177.72 395L160.4 405ZM275.87 605L391.34 805L408.66 795L293.19 595L275.87 605ZM391.34 -5L275.87 195L293.19 205L408.66 5L391.34 -5ZM275.87 195L160.4 395L177.72 405L293.19 205L275.87 195ZM160.4 395L44.9296 595L62.2501 605L177.72 405L160.4 395ZM175.606 407.559L406.547 207.559L393.453 192.441L162.513 392.441L175.606 407.559ZM408.66 805L524.13 605L506.81 595L391.34 795L408.66 805ZM524.13 605L639.6 405L622.28 395L506.81 595L524.13 605ZM639.6 405L755.07 205L737.75 195L622.28 395L639.6 405ZM391.34 5L506.81 205L524.13 195L408.66 -5L391.34 5ZM506.81 205L622.28 405L639.6 395L524.13 195L506.81 205ZM622.28 405L737.75 605L755.07 595L639.6 395L622.28 405ZM637.487 392.441L406.547 192.441L393.453 207.559L624.394 407.559L637.487 392.441ZM53.5898 610H284.53V590H53.5898V610ZM284.53 610H400V590H284.53V610ZM400 610H515.47V590H400V610ZM515.47 610H746.41V590H515.47V610ZM406.547 607.559L637.487 407.559L624.394 392.441L393.453 592.441L406.547 607.559ZM162.513 407.559L393.453 607.559L406.547 592.441L175.606 392.441L162.513 407.559ZM390 0V200H410V0H390ZM390 200V400H410V200H390ZM390 400V600H410V400H390ZM390 600V800H410V600H390ZM0 410H53.5898V390H0V410ZM53.5898 410H169.06V390H53.5898V410ZM169.06 410H400V390H169.06V410ZM400 410H630.94V390H400V410ZM630.94 410H746.41V390H630.94V410ZM746.41 410H800V390H746.41V410ZM400 0L405.176 -19.3185L400 -20.7055L394.824 -19.3185L400 0ZM600 53.5898L614.142 39.4477L610.353 35.6583L605.176 34.2713L600 53.5898ZM746.41 200L765.729 194.824L764.342 189.647L760.552 185.858L746.41 200ZM800 400L819.319 405.176L820.706 400L819.319 394.824L800 400ZM746.41 600L760.552 614.142L764.342 610.353L765.729 605.176L746.41 600ZM600 746.41L605.176 765.729L610.353 764.342L614.142 760.552L600 746.41ZM400 800L394.824 819.319L400 820.706L405.176 819.319L400 800ZM200 746.41L185.858 760.552L189.647 764.342L194.824 765.729L200 746.41ZM53.5898 600L34.2713 605.176L35.6583 610.353L39.4477 614.142L53.5898 600ZM0 400L-19.3185 394.824L-20.7055 400L-19.3185 405.176L0 400ZM53.5898 200L39.4477 185.858L35.6583 189.647L34.2713 194.824L53.5898 200ZM200 53.5898L194.824 34.2713L189.647 35.6583L185.858 39.4477L200 53.5898ZM394.824 19.3185L594.824 72.9084L605.176 34.2713L405.176 -19.3185L394.824 19.3185ZM585.858 67.732L732.268 214.142L760.552 185.858L614.142 39.4477L585.858 67.732ZM727.092 205.176L780.681 405.176L819.319 394.824L765.729 194.824L727.092 205.176ZM780.681 394.824L727.092 594.824L765.729 605.176L819.319 405.176L780.681 394.824ZM732.268 585.858L585.858 732.268L614.142 760.552L760.552 614.142L732.268 585.858ZM594.824 727.092L394.824 780.681L405.176 819.319L605.176 765.729L594.824 727.092ZM405.176 780.681L205.176 727.092L194.824 765.729L394.824 819.319L405.176 780.681ZM214.142 732.268L67.732 585.858L39.4477 614.142L185.858 760.552L214.142 732.268ZM72.9084 594.824L19.3185 394.824L-19.3185 405.176L34.2713 605.176L72.9084 594.824ZM19.3185 405.176L72.9084 205.176L34.2713 194.824L-19.3185 394.824L19.3185 405.176ZM67.732 214.142L214.142 67.732L185.858 39.4477L39.4477 185.858L67.732 214.142ZM205.176 72.9084L405.176 19.3185L394.824 -19.3185L194.824 34.2713L205.176 72.9084Z" fill="black" mask="url(#path-1-inside-1)"/>
</svg>
